<svg width="20" height="20" viewBox="0 0 20 20" fill="none" xmlns="http://www.w3.org/2000/svg">
<path opacity="0.2" d="M17.0713 12.7292C16.0887 15.129 14.3051 16.875 12.8125 16.875H7.1875C5 16.875 2.1875 13.125 2.1875 9.0625C2.18751 8.1576 2.44944 7.27205 2.94166 6.51273C3.43388 5.75342 4.13536 5.15281 4.96143 4.7834C5.78749 4.41399 6.70282 4.29157 7.59692 4.43092C8.49102 4.57027 9.32568 4.96544 10.0001 5.56872L10 5.56857C10.4775 5.14153 11.0375 4.81689 11.6453 4.61468C12.2532 4.41247 12.896 4.33698 13.5342 4.39289C14.1723 4.44879 14.7922 4.63489 15.3557 4.9397C15.9191 5.24451 16.4141 5.66157 16.8101 6.16512L16.81 6.16514C16.236 6.51229 15.7656 7.00702 15.4477 7.5978C15.1299 8.18857 14.9763 8.85376 15.003 9.52407C15.0296 10.1944 15.2355 10.8453 15.5992 11.409C15.9629 11.9727 16.4711 12.4285 17.0709 12.729L17.0713 12.7292Z" fill="#211C4D"/>
<path d="M10.793 2.53953C10.9746 2.06797 11.2948 1.6625 11.7114 1.37652C12.128 1.09054 12.6215 0.937482 13.1269 0.9375" stroke="#211C4D" stroke-width="1.25" stroke-linecap="round" stroke-linejoin="round"/>
<path d="M17.0713 12.7292C16.0887 15.129 14.3051 16.875 12.8125 16.875H7.1875C5 16.875 2.1875 13.125 2.1875 9.0625C2.18751 8.1576 2.44944 7.27205 2.94166 6.51273C3.43388 5.75342 4.13536 5.15281 4.96143 4.7834C5.78749 4.41399 6.70282 4.29157 7.59692 4.43092C8.49102 4.57027 9.32568 4.96544 10.0001 5.56872L10 5.56857C10.4775 5.14153 11.0375 4.81689 11.6453 4.61468C12.2532 4.41247 12.896 4.33698 13.5342 4.39289C14.1723 4.44879 14.7922 4.63489 15.3557 4.9397C15.9191 5.24451 16.4141 5.66157 16.8101 6.16512L16.81 6.16514C16.236 6.51229 15.7656 7.00702 15.4477 7.5978C15.1299 8.18857 14.9763 8.85376 15.003 9.52407C15.0296 10.1944 15.2355 10.8453 15.5992 11.409C15.9629 11.9727 16.4711 12.4285 17.0709 12.729L17.0713 12.7292Z" stroke="#211C4D" stroke-width="1.25" stroke-linecap="round" stroke-linejoin="round"/>
</svg>
