<svg width="20" height="20" viewBox="0 0 20 20" fill="none" xmlns="http://www.w3.org/2000/svg">
<path d="M16.25 4.375H3.75C3.05964 4.375 2.5 4.93464 2.5 5.625V14.375C2.5 15.0654 3.05964 15.625 3.75 15.625H16.25C16.9404 15.625 17.5 15.0654 17.5 14.375V5.625C17.5 4.93464 16.9404 4.375 16.25 4.375Z" stroke="#211C4D" stroke-width="2" stroke-linecap="round" stroke-linejoin="round"/>
<path d="M2.5 9.375H6.93826C7.08225 9.37497 7.22182 9.42473 7.33331 9.51585C7.4448 9.60696 7.52136 9.73383 7.55 9.87494C7.66536 10.4396 7.97221 10.947 8.41865 11.3115C8.86508 11.6759 9.4237 11.875 10 11.875C10.5763 11.875 11.1349 11.6759 11.5814 11.3115C12.0278 10.947 12.3346 10.4396 12.45 9.87494C12.4787 9.73383 12.5552 9.60696 12.6667 9.51585C12.7782 9.42474 12.9178 9.37497 13.0617 9.375H17.5" stroke="#211C4D" stroke-width="2" stroke-linecap="round" stroke-linejoin="round"/>
<path d="M2.5 6.875H17.5" stroke="#211C4D" stroke-width="2" stroke-linecap="round" stroke-linejoin="round"/>
</svg>
