<svg width="20" height="20" viewBox="0 0 20 20" fill="none" xmlns="http://www.w3.org/2000/svg">
<path d="M16.875 5.62503H14.1432C14.5499 5.12876 14.7503 4.49508 14.7028 3.85518C14.6553 3.21527 14.3636 2.61813 13.888 2.18736C13.4124 1.7566 12.7894 1.5252 12.1479 1.54105C11.5064 1.55691 10.8956 1.81882 10.4419 2.27256C10.2609 2.46115 10.1117 2.67779 10 2.91408C9.88825 2.67778 9.739 2.46113 9.55803 2.27252C9.10431 1.81879 8.49349 1.5569 7.85202 1.54105C7.21055 1.5252 6.58755 1.75661 6.11197 2.18738C5.6364 2.61815 5.34467 3.21529 5.29717 3.8552C5.24968 4.4951 5.45005 5.12877 5.85682 5.62503H3.125C2.79359 5.62541 2.47587 5.75722 2.24153 5.99156C2.00719 6.2259 1.87538 6.54362 1.875 6.87503V9.37503C1.87538 9.70644 2.00719 10.0242 2.24153 10.2585C2.47587 10.4928 2.79359 10.6247 3.125 10.625V15.625C3.12538 15.9564 3.2572 16.2742 3.49154 16.5085C3.72587 16.7428 4.0436 16.8747 4.375 16.875H15.625C15.9564 16.8747 16.2741 16.7428 16.5085 16.5085C16.7428 16.2742 16.8746 15.9564 16.875 15.625V10.625C17.2064 10.6247 17.5241 10.4928 17.7585 10.2585C17.9928 10.0242 18.1246 9.70644 18.125 9.37503V6.87503C18.1246 6.54362 17.9928 6.2259 17.7585 5.99156C17.5241 5.75722 17.2064 5.62541 16.875 5.62503ZM11.3258 3.15644C11.4418 3.04032 11.5796 2.9482 11.7313 2.88534C11.883 2.82248 12.0455 2.79012 12.2097 2.79009C12.3739 2.79007 12.5365 2.82239 12.6882 2.88521C12.8398 2.94803 12.9777 3.04011 13.0938 3.15621C13.2099 3.2723 13.3019 3.41012 13.3648 3.56181C13.4276 3.71349 13.4599 3.87607 13.4599 4.04025C13.4599 4.20443 13.4275 4.367 13.3647 4.51867C13.3018 4.67034 13.2097 4.80815 13.0936 4.92421C12.7076 5.31024 11.5916 5.52701 10.6516 5.59838C10.723 4.65837 10.9398 3.54243 11.3258 3.15644ZM6.90636 3.15644C7.14097 2.92238 7.45885 2.79093 7.79026 2.79092C8.12166 2.79092 8.43954 2.92237 8.67416 3.15642C9.06021 3.54245 9.27696 4.65848 9.34837 5.59837C8.40836 5.52697 7.2924 5.3102 6.90643 4.92421C6.67237 4.68961 6.54091 4.37174 6.5409 4.04034C6.54088 3.70894 6.67231 3.39107 6.90636 3.15644ZM16.875 9.37503H10.625V15C10.625 15.1658 10.5592 15.3248 10.4419 15.442C10.3247 15.5592 10.1658 15.625 10 15.625C9.83424 15.625 9.67527 15.5592 9.55806 15.442C9.44085 15.3248 9.375 15.1658 9.375 15V9.37503H3.125V6.87503H9.375V9.37503H10.625V6.87503H16.875L16.8758 9.37499L16.875 9.37503Z" fill="#211C4D"/>
</svg>
