<svg width="20" height="20" viewBox="0 0 20 20" fill="none" xmlns="http://www.w3.org/2000/svg">
<path d="M18.125 4.375H1.875C1.5436 4.37538 1.22587 4.5072 0.991535 4.74154C0.757197 4.97587 0.625379 5.2936 0.625 5.625V14.375C0.625379 14.7064 0.757197 15.0241 0.991535 15.2585C1.22587 15.4928 1.5436 15.6246 1.875 15.625H18.125C18.4564 15.6246 18.7741 15.4928 19.0085 15.2585C19.2428 15.0241 19.3746 14.7064 19.375 14.375V5.625C19.3746 5.2936 19.2428 4.97587 19.0085 4.74154C18.7741 4.5072 18.4564 4.37538 18.125 4.375ZM5.85621 14.375L1.875 10.9625V9.03746L5.85621 5.625H14.1438L18.1253 9.0377L18.1255 10.9621L14.1438 14.375H5.85621ZM13.125 10C13.125 10.6181 12.9417 11.2223 12.5983 11.7362C12.255 12.2501 11.7669 12.6506 11.1959 12.8871C10.6249 13.1236 9.99653 13.1855 9.39034 13.065C8.78415 12.9444 8.22733 12.6467 7.79029 12.2097C7.35325 11.7727 7.05562 11.2158 6.93505 10.6097C6.81447 10.0035 6.87635 9.37513 7.11288 8.80411C7.3494 8.2331 7.74994 7.74504 8.26384 7.40166C8.77775 7.05828 9.38193 6.875 10 6.875C10.8285 6.87595 11.6228 7.20549 12.2087 7.79134C12.7945 8.37718 13.1241 9.17149 13.125 10Z" fill="#211C4D"/>
</svg>
