<svg width="20" height="20" viewBox="0 0 20 20" fill="none" xmlns="http://www.w3.org/2000/svg">
<path fill-rule="evenodd" clip-rule="evenodd" d="M6.0407 5.94173V6.24996H4.78976C4.41709 6.24996 4.1008 6.52328 4.04677 6.89202L3.86455 8.13573C3.50869 10.5644 3.50869 13.032 3.86454 15.4607C4.02399 16.5489 4.90153 17.3902 5.99552 17.5037L6.51958 17.558C8.83301 17.7979 11.1651 17.7979 13.4785 17.558L14.0025 17.5037C15.0965 17.3902 15.9741 16.5489 16.1335 15.4607C16.4894 13.032 16.4894 10.5644 16.1335 8.13573L15.9513 6.89202C15.8973 6.52328 15.581 6.24996 15.2083 6.24996H13.9574V5.94173C13.9574 4.13528 12.7344 2.55799 10.9848 2.10811C10.3382 1.94183 9.65992 1.94183 9.01325 2.10811C7.26371 2.55799 6.0407 4.13528 6.0407 5.94173ZM10.6735 3.31873C10.2311 3.20495 9.76701 3.20495 9.32455 3.31873C8.1275 3.62654 7.2907 4.70574 7.2907 5.94173V6.24996H12.7074V5.94173C12.7074 4.70574 11.8706 3.62654 10.6735 3.31873ZM7.2907 7.49996C7.2907 7.15478 7.01088 6.87496 6.6657 6.87496C6.32053 6.87496 6.0407 7.15478 6.0407 7.49996V9.16663C6.0407 9.5118 6.32053 9.79163 6.6657 9.79163C7.01088 9.79163 7.2907 9.5118 7.2907 9.16663V7.49996ZM13.9574 7.49996C13.9574 7.15478 13.6775 6.87496 13.3324 6.87496C12.9872 6.87496 12.7074 7.15478 12.7074 7.49996V9.16663C12.7074 9.5118 12.9872 9.79163 13.3324 9.79163C13.6775 9.79163 13.9574 9.5118 13.9574 9.16663V7.49996Z" fill="#211C4D"/>
</svg>
