<svg width="20" height="20" viewBox="0 0 20 20" fill="none" xmlns="http://www.w3.org/2000/svg">
<path opacity="0.2" d="M10 14.0625C11.7259 14.0625 13.125 12.6634 13.125 10.9375C13.125 9.21161 11.7259 7.8125 10 7.8125C8.27411 7.8125 6.875 9.21161 6.875 10.9375C6.875 12.6634 8.27411 14.0625 10 14.0625Z" fill="#211C4D"/>
<path opacity="0.2" d="M4.6875 9.0625C6.06821 9.0625 7.1875 7.94321 7.1875 6.5625C7.1875 5.18179 6.06821 4.0625 4.6875 4.0625C3.30679 4.0625 2.1875 5.18179 2.1875 6.5625C2.1875 7.94321 3.30679 9.0625 4.6875 9.0625Z" fill="#211C4D"/>
<path opacity="0.2" d="M15.3125 9.0625C16.6932 9.0625 17.8125 7.94321 17.8125 6.5625C17.8125 5.18179 16.6932 4.0625 15.3125 4.0625C13.9318 4.0625 12.8125 5.18179 12.8125 6.5625C12.8125 7.94321 13.9318 9.0625 15.3125 9.0625Z" fill="#211C4D"/>
<path d="M10 14.0625C11.7259 14.0625 13.125 12.6634 13.125 10.9375C13.125 9.21161 11.7259 7.8125 10 7.8125C8.27411 7.8125 6.875 9.21161 6.875 10.9375C6.875 12.6634 8.27411 14.0625 10 14.0625Z" stroke="#211C4D" stroke-width="1.25" stroke-linecap="round" stroke-linejoin="round"/>
<path d="M15.3125 9.0625C16.0403 9.0619 16.7582 9.23102 17.4092 9.55645C18.0602 9.88188 18.6263 10.3546 19.0626 10.9372" stroke="#211C4D" stroke-width="1.25" stroke-linecap="round" stroke-linejoin="round"/>
<path d="M0.9375 10.9373C1.37378 10.3548 1.93992 9.88196 2.59093 9.5565C3.24194 9.23104 3.95989 9.0619 4.68772 9.0625" stroke="#211C4D" stroke-width="1.25" stroke-linecap="round" stroke-linejoin="round"/>
<path d="M5.50391 16.8749C5.91447 16.0317 6.55385 15.3208 7.34907 14.8235C8.14429 14.3262 9.0633 14.0625 10.0012 14.0625C10.9391 14.0625 11.8581 14.3262 12.6534 14.8235C13.4486 15.3208 14.088 16.0316 14.4985 16.8749" stroke="#211C4D" stroke-width="1.25" stroke-linecap="round" stroke-linejoin="round"/>
<path d="M4.68703 9.0625C4.21269 9.06241 3.74816 8.92738 3.34769 8.67316C2.94721 8.41895 2.62733 8.05605 2.42538 7.62684C2.22344 7.19763 2.14777 6.71982 2.20721 6.24921C2.26665 5.77861 2.45875 5.33462 2.76108 4.96911C3.06341 4.60359 3.46348 4.33163 3.91459 4.18498C4.36569 4.03833 4.84921 4.02304 5.30868 4.1409C5.76815 4.25876 6.18461 4.50491 6.50942 4.8506C6.83423 5.19629 7.054 5.62725 7.14305 6.09316" stroke="#211C4D" stroke-width="1.25" stroke-linecap="round" stroke-linejoin="round"/>
<path d="M12.8555 6.09326C12.9445 5.62727 13.1642 5.19623 13.489 4.85047C13.8139 4.5047 14.2304 4.25849 14.6899 4.14058C15.1494 4.02268 15.633 4.03794 16.0842 4.1846C16.5353 4.33125 16.9355 4.60324 17.2379 4.9688C17.5402 5.33436 17.7323 5.77841 17.7918 6.24908C17.8512 6.71975 17.7755 7.19762 17.5735 7.62688C17.3716 8.05614 17.0516 8.41907 16.6511 8.67328C16.2505 8.9275 15.7859 9.06252 15.3115 9.06256" stroke="#211C4D" stroke-width="1.25" stroke-linecap="round" stroke-linejoin="round"/>
</svg>
