<svg width="177" height="105" viewBox="0 0 177 105" fill="none" xmlns="http://www.w3.org/2000/svg">
<g clip-path="url(#clip0_187_14195)">
<path fill-rule="evenodd" clip-rule="evenodd" d="M60.7774 30.1845C60.4404 29.2064 60.2705 28.1598 60.2705 27.0476C60.2705 25.9354 60.4404 24.9395 60.7774 23.9615C61.1322 22.9835 61.6302 22.1218 62.2713 21.3823C62.9123 20.6398 63.6786 20.0584 64.5732 19.6379C65.4826 19.1996 66.4875 18.979 67.5848 18.979C68.6821 18.979 69.7615 19.1996 70.7216 19.6379C71.6996 20.0584 72.5434 20.6428 73.2501 21.3823C73.9747 22.1247 74.5412 22.9835 74.9438 23.9615C75.3493 24.9395 75.552 25.9682 75.552 27.0476C75.552 28.127 75.3493 29.2064 74.9438 30.1845C74.5382 31.1446 73.9747 31.9795 73.2501 32.6891C72.5405 33.3988 71.6996 33.9624 70.7216 34.3828C69.7615 34.7883 68.7149 34.9911 67.5848 34.9911C66.4547 34.9911 65.4856 34.7883 64.5732 34.3828C63.6786 33.9624 62.9123 33.3958 62.2713 32.6891C61.6302 31.9795 61.1322 31.1446 60.7774 30.1845ZM85.1891 43.0866H76.6851L75.88 40.0004C75.4238 40.4567 74.902 40.9039 74.3116 41.3422C73.7391 41.7806 73.0981 42.1771 72.3884 42.532C71.6966 42.8689 70.9452 43.1402 70.1372 43.343C69.344 43.5637 68.5181 43.671 67.6563 43.671C66.1207 43.671 64.6447 43.4772 63.2284 43.0896C61.83 42.7019 60.512 42.1533 59.2805 41.4436C58.067 40.7191 56.9607 39.8573 55.9648 38.8644C54.9689 37.8536 54.1102 36.7294 53.3856 35.501C52.6759 34.2695 52.1303 32.9456 51.7396 31.5292C51.352 30.095 51.1582 28.6041 51.1582 27.0506C51.1582 24.707 51.5876 22.5303 52.4493 20.5235C53.3081 18.4989 54.4829 16.7456 55.9648 15.2607C57.4497 13.7609 59.1941 12.5861 61.2008 11.7452C63.2075 10.8865 65.3574 10.4541 67.6533 10.4541C68.6999 10.4541 69.669 10.5734 70.5636 10.8089C71.473 11.0445 72.3019 11.3665 73.0444 11.7691C73.8047 12.1746 74.4876 12.6636 75.0929 13.2361C75.7011 13.7937 76.2319 14.399 76.6881 15.058V10.8089H85.1891V43.0925V43.0866Z" fill="#9FE7F5"/>
<path fill-rule="evenodd" clip-rule="evenodd" d="M96.1799 30.1814C95.8429 29.2034 95.673 28.1568 95.673 27.0446C95.673 25.9324 95.8429 24.9365 96.1799 23.9585C96.5347 22.9805 97.0327 22.1187 97.6737 21.3792C98.3148 20.6368 99.0811 20.0553 99.9757 19.6349C100.885 19.1966 101.89 18.9759 102.987 18.9759C104.085 18.9759 105.164 19.1966 106.124 19.6349C107.102 20.0553 107.946 20.6398 108.653 21.3792C109.377 22.1217 109.944 22.9805 110.346 23.9585C110.752 24.9365 110.955 25.9652 110.955 27.0446V27.3994C110.904 28.4609 110.659 29.4569 110.221 30.3842C109.801 31.3115 109.234 32.1226 108.527 32.8143C107.818 33.4882 106.983 34.019 106.023 34.4096C105.077 34.7972 104.067 34.991 102.987 34.991C101.908 34.991 100.888 34.7883 99.9757 34.3827C99.0811 33.9623 98.3148 33.3958 97.6737 32.6891C97.0327 31.9794 96.5347 31.1445 96.1799 30.1844V30.1814ZM110.474 39.9229C110.018 40.3791 109.496 40.8323 108.906 41.2885C108.334 41.7268 107.701 42.1234 107.01 42.4782C106.336 42.8331 105.602 43.1193 104.809 43.337C104.034 43.5576 103.208 43.665 102.328 43.665C100.035 43.665 97.9182 43.2356 95.9771 42.3739C94.0539 41.5151 92.393 40.3403 90.9946 38.8584C89.611 37.3585 88.5227 35.5933 87.7295 33.5717C86.9543 31.5471 86.5667 29.3734 86.5667 27.0446C86.5667 24.7158 86.9543 22.5242 87.7295 20.5175C88.5227 18.4929 89.611 16.7396 90.9946 15.2547C92.393 13.7549 94.0569 12.58 95.9771 11.7392C97.9182 10.8804 100.032 10.4481 102.328 10.4481C103.256 10.4481 104.099 10.5316 104.857 10.7015C105.632 10.8536 106.333 11.0802 106.956 11.3844C107.597 11.6885 108.179 12.0493 108.7 12.4727C109.24 12.8931 109.747 13.3583 110.218 13.8652V1.39246H119.933V43.0865H111.76L110.471 39.9229H110.474Z" fill="#9FE7F5"/>
<path d="M126.779 11.4112C126.779 9.84283 127.116 8.36685 127.789 6.98331C128.463 5.59977 129.367 4.39514 130.497 3.36643C131.627 2.31982 132.927 1.50282 134.394 0.91243C135.861 0.304149 137.397 0.00299072 138.998 0.00299072H141.3V8.76044L139.302 8.85288C138.947 8.85288 138.306 9.02582 137.987 9.16C137.668 9.27927 137.379 9.44625 137.128 9.6669C136.875 9.88755 136.672 10.147 136.52 10.4511C136.368 10.7374 136.293 11.0594 136.293 11.4112V14.3214H141.58V22.9984H136.293V43.0866H126.782V22.9984H122.202C122.202 22.6793 122.202 22.4289 122.202 22.4289V14.3214H126.782V11.4112H126.779Z" fill="#9FE7F5"/>
<path d="M49.0798 19.1012C48.6087 17.3807 47.8901 15.8809 46.9299 14.5988C45.9847 13.3166 44.795 12.3058 43.3638 11.5633C41.9295 10.8208 40.2508 10.4511 38.3305 10.4511C37.1169 10.4511 35.969 10.6032 34.8896 10.9073C33.8102 11.2115 32.8321 11.5991 31.9555 12.0702C31.0789 12.5413 30.3185 13.0661 29.6774 13.6386C29.0542 14.2111 28.5801 14.7598 28.2611 15.2846C27.7393 14.5093 27.1817 13.8265 26.5913 13.2361C26.0009 12.6278 25.3419 12.1239 24.6174 11.7184C23.9077 11.2979 23.1146 10.9848 22.2379 10.7821C21.3792 10.5614 20.4161 10.4541 19.3546 10.4541C18.0038 10.4541 16.823 10.6062 15.8122 10.9103C14.8163 11.1966 13.9576 11.5693 13.233 12.0225C12.5084 12.4787 11.9091 12.9826 11.438 13.5402C10.9668 14.0978 10.6031 14.6375 10.3496 15.1593V15.1295C9.1241 17.8191 6.04692 19.2145 3.1725 18.2723C2.74312 18.1321 2.34655 17.9443 1.97681 17.7207V43.0895H11.6914V24.5191C11.7421 23.7587 11.918 23.07 12.2222 22.4438C12.5442 21.8206 12.9318 21.2898 13.3851 20.8485C13.8562 20.3923 14.381 20.0464 14.9535 19.8109C15.5439 19.5574 16.1432 19.4322 16.7485 19.4322C17.4581 19.4322 18.0903 19.5664 18.6449 19.8377C19.2174 20.0912 19.7004 20.452 20.0881 20.9261C20.4936 21.3823 20.7977 21.922 20.9975 22.5452C21.2182 23.1684 21.3255 23.8452 21.3255 24.5698V43.0895H30.8135V24.5698C30.8135 23.8094 30.9387 23.1206 31.1922 22.4945C31.4605 21.8534 31.8154 21.3137 32.2537 20.8754C32.692 20.4192 33.1989 20.0643 33.7714 19.8139C34.3439 19.5604 34.9522 19.4352 35.5933 19.4352C36.3029 19.4352 36.944 19.5694 37.5165 19.8407C38.1069 20.0941 38.6048 20.4549 39.0104 20.929C39.4159 21.3853 39.726 21.925 39.9466 22.5481C40.1822 23.1713 40.3015 23.8482 40.3015 24.5728V43.0925H49.7895V24.5728C49.7895 22.6316 49.5539 20.8128 49.0798 19.1072V19.1012Z" fill="#9FE7F5"/>
<path d="M166.562 38.6706C166.577 38.6169 166.589 38.5602 166.606 38.5066C167.617 35.4204 170.939 33.7387 174.025 34.7495C174.344 34.8539 174.642 34.9881 174.929 35.1372V10.955H165.214V29.272C165.214 30.2172 165.011 31.0253 164.606 31.7022C164.2 32.376 163.696 32.9336 163.088 33.3719C162.48 33.7924 161.824 34.1055 161.114 34.3082C160.404 34.511 159.748 34.6124 159.14 34.6124C158.43 34.6124 157.757 34.4692 157.115 34.183C156.492 33.8967 155.944 33.5091 155.472 33.0201C155.001 32.5132 154.62 31.9407 154.333 31.2996C154.062 30.6406 153.928 29.9489 153.928 29.2243V10.958H144.44V29.4778C144.44 31.4189 144.702 33.2467 145.224 34.9672C145.746 36.6698 146.515 38.1636 147.526 39.4458C148.555 40.728 149.813 41.7388 151.295 42.4813C152.777 43.2237 154.483 43.5934 156.406 43.5934C157.739 43.5934 158.97 43.4324 160.1 43.1134C161.23 42.7943 162.226 42.3888 163.085 41.8998C163.962 41.4108 164.695 40.88 165.285 40.3046C165.876 39.7142 166.296 39.1566 166.55 38.6348L166.556 38.6706H166.562Z" fill="#9FE7F5"/>
<path d="M172.197 45.0843C174.819 45.0843 176.944 42.959 176.944 40.3374C176.944 37.7157 174.819 35.5904 172.197 35.5904C169.576 35.5904 167.45 37.7157 167.45 40.3374C167.45 42.959 169.576 45.0843 172.197 45.0843Z" fill="#9FE7F5"/>
<path d="M5.00039 17.4255C7.62208 17.4255 9.74737 15.3002 9.74737 12.6785C9.74737 10.0568 7.62208 7.93152 5.00039 7.93152C2.37871 7.93152 0.253418 10.0568 0.253418 12.6785C0.253418 15.3002 2.37871 17.4255 5.00039 17.4255Z" fill="#9FE7F5"/>
<path d="M103.455 74.1029C103.455 71.801 103.074 69.7137 102.29 67.8591C102.29 67.8591 102.29 67.8591 102.29 67.8561C102.29 67.8561 102.29 67.8561 102.29 67.8531C101.529 66.0223 100.456 64.4569 99.0663 63.1777C97.6739 61.8836 96.0041 60.9175 94.0719 60.2705C94.0719 60.2705 94.0689 60.2705 94.0659 60.2705C94.0659 60.2705 94.0629 60.2705 94.0599 60.2705C92.1457 59.6085 90.0584 59.2865 87.8072 59.2865C85.5559 59.2865 83.4508 59.6204 81.5156 60.3003C79.6014 60.9622 77.9375 61.9373 76.5331 63.2254C75.1227 64.5046 74.0314 66.07 73.2532 67.9038V67.9127C72.4869 69.7644 72.1141 71.8338 72.1141 74.1059C72.1141 76.378 72.5226 78.6233 73.3456 80.5525H72.1141C72.0962 80.5554 72.0784 80.5525 72.0605 80.5525C70.7336 80.5525 69.8152 80.1559 69.1681 79.4582H69.1652L69.1622 79.4522C68.5271 78.7783 68.1245 77.7019 68.1245 76.047V74.1059C68.1245 71.804 67.7429 69.7167 66.9587 67.8621C66.9587 67.8621 66.9587 67.8621 66.9587 67.8591C66.9587 67.8591 66.9587 67.8591 66.9587 67.8561C66.1983 66.0223 65.1249 64.4569 63.7324 63.1777C62.325 61.8836 60.6552 60.9086 58.7379 60.2436H58.7349H58.732C56.8177 59.5996 54.7304 59.2835 52.4762 59.2835C50.222 59.2835 48.102 59.6085 46.1847 60.2735C44.2704 60.9354 42.6006 61.9104 41.1962 63.2016C39.7858 64.4807 38.6945 66.0462 37.9162 67.8799V67.8859L37.9103 67.8919C37.144 69.7585 36.7712 71.8368 36.7712 74.1059C36.7712 76.375 37.144 78.5278 37.9103 80.3974V80.4064C38.6885 82.258 39.7828 83.8294 41.1962 85.0937C42.6006 86.3669 44.2674 87.33 46.1787 87.992C48.096 88.6569 50.1952 88.9819 52.4702 88.9819C54.6052 88.9819 56.5881 88.6867 58.4189 88.0934C58.3712 88.3826 58.3145 88.6718 58.2459 88.9521C58.1446 89.3725 58.0312 89.7542 57.906 90.0613C57.7748 90.3834 57.6585 90.5593 57.5929 90.6308V90.6338C56.9489 91.3286 56.0245 91.7281 54.6738 91.7281H53.6421V100.298L54.6827 100.289C56.7819 100.271 58.6664 99.9548 60.3242 99.3137C62.0149 98.6637 63.4551 97.7513 64.621 96.5646C65.7809 95.3838 66.6515 93.9883 67.236 92.3901C67.4834 91.7073 67.6624 90.7024 67.7936 89.781C67.8562 89.3457 67.9069 88.9104 67.9516 88.5019C69.186 88.812 70.5308 88.97 71.977 88.9849H71.9829H71.9889H72.0664C72.0843 88.9849 72.1022 88.9849 72.1201 88.9849H73.1518H87.8281C90.0823 88.9849 92.1755 88.6599 94.0898 87.9979C96.019 87.336 97.6858 86.3818 99.0783 85.1205V85.1146C100.474 83.8324 101.547 82.258 102.308 80.4064C102.308 80.4064 102.308 80.4064 102.308 80.4034C102.308 80.4034 102.308 80.4034 102.308 80.4004C103.092 78.5308 103.473 76.4257 103.473 74.1089L103.455 74.1029ZM58.1088 76.7656V76.7746L58.1028 76.7835C57.8195 77.5737 57.417 78.2326 56.9012 78.7783L56.8952 78.7843L56.8892 78.7902C56.3972 79.324 55.777 79.7504 55.0107 80.0605C54.2504 80.3676 53.3916 80.5286 52.4196 80.5286C51.4475 80.5286 50.6573 80.3676 49.9149 80.0635C49.1605 79.7533 48.5194 79.321 47.9827 78.7694C47.449 78.2207 47.0196 77.5558 46.7065 76.7626C46.4113 75.9814 46.2592 75.0988 46.2592 74.1059C46.2592 73.1129 46.4143 72.2691 46.7065 71.5058C47.0255 70.7037 47.446 70.0358 47.9678 69.4841C48.5015 68.9206 49.1396 68.4852 49.8851 68.1781C50.6454 67.871 51.4952 67.71 52.4464 67.71C53.3976 67.71 54.2474 67.871 55.0107 68.1781H55.0197L55.0286 68.1841C55.7949 68.4793 56.4121 68.8878 56.9012 69.4066L56.9071 69.4126L56.9131 69.4185C57.423 69.9433 57.8225 70.5874 58.1058 71.3776V71.3865L58.1118 71.3954C58.4069 72.1767 58.562 73.0772 58.562 74.1118C58.562 75.1465 58.4069 75.9904 58.1118 76.7746L58.1088 76.7656ZM94.4535 71.0227L93.4815 71.3716V71.3805L93.4874 71.3895C93.7826 72.1707 93.9377 73.0712 93.9377 74.1059C93.9377 75.1405 93.7826 75.9963 93.4845 76.8014V76.8074L93.4815 76.8133C93.1982 77.6005 92.7987 78.2595 92.2858 78.8022C91.7699 79.3299 91.1318 79.7623 90.3566 80.0903C89.6201 80.3944 88.7733 80.5554 87.8042 80.5554C86.8351 80.5554 86.0479 80.3974 85.3055 80.0933C84.5451 79.7623 83.9011 79.3299 83.3614 78.7932C82.8306 78.2446 82.4042 77.5826 82.0911 76.7925C81.7959 75.9904 81.6409 75.0988 81.6409 74.1089C81.6409 73.1189 81.7959 72.2721 82.0882 71.5088C82.4072 70.7067 82.8276 70.0387 83.3494 69.4871L83.3554 69.4812L83.3614 69.4752C83.8742 68.9206 84.5034 68.4882 85.2667 68.1781C86.03 67.871 86.8739 67.71 87.8042 67.71C88.7345 67.71 89.6231 67.871 90.3626 68.1751L90.3745 68.1811H90.3864C91.1557 68.4823 91.7849 68.8937 92.2947 69.4185C92.8046 69.9433 93.2042 70.5874 93.4874 71.3776L94.4595 71.0287L94.4535 71.0227Z" fill="#9FE7F5"/>
<path d="M84.6107 57.1217L84.6167 57.1277L84.6227 57.1336C85.5083 57.8373 86.5817 58.1594 87.7744 58.1594C88.9671 58.1594 90.0048 57.8314 90.9082 57.1485H90.9142L90.9202 57.1396C91.9489 56.3405 92.4826 55.2462 92.4826 53.9431C92.4826 52.6401 91.9876 51.5279 90.953 50.7586C90.0256 50.0668 88.9522 49.7269 87.7744 49.7269C86.5966 49.7269 85.5261 50.0519 84.6316 50.7437C83.6089 51.5369 83.093 52.6371 83.093 53.9402C83.093 55.2432 83.6148 56.3077 84.6107 57.1187V57.1217Z" fill="#9FE7F5"/>
<path d="M33.6583 60.9264C31.3116 59.8172 28.6817 59.2745 25.7894 59.2745C23.5202 59.2745 21.4241 59.5996 19.5068 60.2615C19.5068 60.2615 19.5068 60.2615 19.5038 60.2615C19.5008 60.2615 19.5038 60.2615 19.5008 60.2615C17.5835 60.9085 15.9137 61.8746 14.5064 63.1687C13.1139 64.4479 12.0315 66.0133 11.2532 67.8471V67.8561C10.4839 69.7107 10.1142 71.798 10.1142 74.0999C10.1142 76.5926 10.5734 78.8588 11.4918 80.8804C10.5615 81.0564 9.68185 81.2889 8.86783 81.599H8.86485H8.86187C7.00125 82.3176 5.43283 83.3165 4.17751 84.6076C2.93709 85.8689 1.99784 87.3568 1.36272 89.0535V89.0594L1.35974 89.0654C0.745495 90.759 0.444336 92.569 0.444336 94.4892C0.444336 95.6253 0.548698 96.7256 0.748476 97.7871C1.97995 95.1064 5.04819 93.714 7.91963 94.6562C8.71576 94.9156 9.41648 95.3331 10.0009 95.8579C9.92338 95.3867 9.88461 94.9067 9.88461 94.4117C9.88461 93.1355 10.156 92.1247 10.639 91.3345C11.1191 90.5473 11.8556 89.9062 12.9022 89.4262C13.5492 89.1369 14.3692 88.973 15.4009 88.973H34.2665V80.5405H25.8073C24.8412 80.5405 23.9854 80.3795 23.228 80.0753C22.4707 79.7474 21.8415 79.315 21.3227 78.7872C20.8068 78.2416 20.3983 77.5826 20.1002 76.7924C19.8169 75.9844 19.6708 75.0898 19.6708 74.0909C19.6708 73.0921 19.8199 72.1498 20.1002 71.3686C20.3983 70.5784 20.8098 69.9284 21.3197 69.4036C21.8326 68.8758 22.4557 68.4643 23.2072 68.1692H23.2131L23.2191 68.1662C23.6962 67.9724 24.218 67.8441 24.7756 67.7726V72.5911H34.2695V61.1978L33.6791 60.9175L33.6583 60.9264Z" fill="#9FE7F5"/>
<path d="M165.888 79.7175C164.471 79.2524 163.356 78.3012 162.659 77.1115C162.387 77.7555 162.035 78.3102 161.594 78.7753C161.081 79.315 160.449 79.7444 159.68 80.0545H159.677H159.674C158.934 80.3586 158.087 80.5196 157.115 80.5196C156.143 80.5196 155.353 80.3586 154.611 80.0545C153.856 79.7444 153.215 79.312 152.679 78.7604C152.145 78.2118 151.715 77.5468 151.402 76.7537C151.107 75.9724 150.955 75.0898 150.955 74.0969C150.955 73.104 151.11 72.2601 151.402 71.4998C151.721 70.7156 152.145 70.0417 152.676 69.4662C153.188 68.9116 153.818 68.4793 154.581 68.1692C155.344 67.862 156.188 67.701 157.118 67.701C158.049 67.701 158.937 67.862 159.677 68.1662L159.689 68.1721H159.701C160.467 68.4703 161.084 68.8818 161.573 69.3976L161.579 69.4036L161.585 69.4096C162.029 69.8688 162.396 70.4353 162.682 71.1092C164.06 68.7983 166.896 67.6623 169.561 68.5329C170.769 68.9295 171.759 69.6809 172.46 70.6351C172.272 69.663 172 68.7357 171.643 67.8561V67.8501L171.637 67.8441C170.858 66.0133 169.779 64.4479 168.386 63.1687C166.994 61.8746 165.324 60.9086 163.392 60.2615C163.392 60.2615 163.389 60.2615 163.386 60.2615C163.386 60.2615 163.383 60.2615 163.38 60.2615C161.466 59.5996 159.379 59.2775 157.127 59.2775C154.876 59.2775 152.78 59.6025 150.863 60.2675H150.86H150.857C148.945 60.9473 147.276 61.9194 145.856 63.1896L145.85 63.1956L145.844 63.2015C144.437 64.4956 143.352 66.07 142.591 67.9068C142.591 67.9068 142.591 67.9068 142.591 67.9097C142.591 67.9097 142.591 67.9097 142.591 67.9127C141.807 69.7644 141.425 71.8367 141.425 74.1059V76.047C141.425 77.7049 141.023 78.7813 140.388 79.4522H140.385L140.382 79.4581C139.735 80.1559 138.816 80.5524 137.489 80.5524H136.896C136.744 80.5375 136.589 80.5256 136.428 80.5256C135.098 80.5256 134.177 80.135 133.533 79.4552C132.892 78.7604 132.492 77.6721 132.492 76.0202V74.1297C132.492 71.8129 132.113 69.7077 131.329 67.8382C131.329 67.8382 131.329 67.8352 131.329 67.8322C131.329 67.8322 131.329 67.8322 131.329 67.8292C130.569 65.9776 129.486 64.4121 128.073 63.1479C128.073 63.1479 128.07 63.1449 128.067 63.1419C128.067 63.1419 128.064 63.1389 128.061 63.1359C126.672 61.8627 125.014 60.8996 123.105 60.2377H123.102H123.099C121.185 59.5936 119.086 59.2775 116.817 59.2775H110.892V67.71H116.841C117.792 67.71 118.642 67.871 119.405 68.1781C120.171 68.4882 120.792 68.9146 121.283 69.4483L121.289 69.4543L121.295 69.4603C121.814 70.0059 122.226 70.6679 122.524 71.461C122.804 72.2482 122.953 73.1338 122.953 74.1327C122.953 75.1316 122.804 76.0738 122.524 76.855C122.226 77.6452 121.814 78.2952 121.304 78.82L121.295 78.829L121.286 78.8379C120.797 79.3687 120.183 79.7831 119.423 80.0754C118.657 80.3706 117.801 80.5256 116.844 80.5256H105.975V88.9819H116.817C119.089 88.9819 121.188 88.6569 123.105 87.9949C124.614 87.4761 125.962 86.7605 127.149 85.854C128.186 86.7515 129.397 87.4701 130.777 88.0069C132.417 88.6479 134.281 88.964 136.344 88.9819H136.35H136.353H136.431C136.431 88.9819 136.449 88.9819 136.461 88.9819V88.9909L137.501 88.9819C139.601 88.964 141.488 88.6479 143.143 88.0069C144.517 87.4701 145.731 86.7575 146.778 85.863C147.979 86.7635 149.345 87.4731 150.869 87.992C152.783 88.6539 154.873 88.9789 157.127 88.9789C159.382 88.9789 161.472 88.6539 163.389 87.992C165.318 87.33 166.985 86.3758 168.378 85.1146V85.1086C169.773 83.8264 170.855 82.2521 171.634 80.4004V80.3914C171.991 79.5178 172.26 78.5934 172.448 77.6214C170.981 79.6042 168.363 80.5226 165.891 79.7146L165.888 79.7175Z" fill="#9FE7F5"/>
<path d="M6.07388 105C8.69556 105 10.8209 102.875 10.8209 100.253C10.8209 97.6313 8.69556 95.506 6.07388 95.506C3.4522 95.506 1.3269 97.6313 1.3269 100.253C1.3269 102.875 3.4522 105 6.07388 105Z" fill="#9FE7F5"/>
<path d="M167.718 78.8767C170.34 78.8767 172.465 76.7514 172.465 74.1297C172.465 71.508 170.34 69.3828 167.718 69.3828C165.097 69.3828 162.971 71.508 162.971 74.1297C162.971 76.7514 165.097 78.8767 167.718 78.8767Z" fill="#9FE7F5"/>
</g>
<defs>
<clipPath id="clip0_187_14195">
<rect width="176.691" height="105" fill="white" transform="translate(0.253418)"/>
</clipPath>
</defs>
</svg>
